<mxfile host="app.diagrams.net" modified="2024-06-13T07:08:22.743Z" agent="Mozilla/5.0 (Windows NT 10.0; Win64; x64) AppleWebKit/537.36 (KHTML, like Gecko) Chrome/125.0.0.0 Safari/537.36" etag="lkrO9RLHF2hUjXCemi02" version="24.5.3" type="github">
  <diagram name="第 1 页" id="QhjmsHd4cFKBtVcFpPf3">
    <mxGraphModel dx="1420" dy="724" grid="1" gridSize="10" guides="1" tooltips="1" connect="1" arrows="1" fold="1" page="1" pageScale="1" pageWidth="827" pageHeight="1169" math="0" shadow="0">
      <root>
        <mxCell id="0" />
        <mxCell id="1" parent="0" />
        <mxCell id="3rRtZios1IY7zG07xDWW-22" style="edgeStyle=orthogonalEdgeStyle;rounded=0;orthogonalLoop=1;jettySize=auto;html=1;exitX=0.5;exitY=1;exitDx=0;exitDy=0;entryX=0.5;entryY=0;entryDx=0;entryDy=0;" edge="1" parent="1" source="3rRtZios1IY7zG07xDWW-1" target="3rRtZios1IY7zG07xDWW-13">
          <mxGeometry relative="1" as="geometry" />
        </mxCell>
        <mxCell id="3rRtZios1IY7zG07xDWW-1" value="开始" style="ellipse;whiteSpace=wrap;html=1;" vertex="1" parent="1">
          <mxGeometry x="335" y="30" width="120" height="80" as="geometry" />
        </mxCell>
        <mxCell id="3rRtZios1IY7zG07xDWW-25" style="edgeStyle=orthogonalEdgeStyle;rounded=0;orthogonalLoop=1;jettySize=auto;html=1;exitX=0.5;exitY=1;exitDx=0;exitDy=0;entryX=0.5;entryY=0;entryDx=0;entryDy=0;" edge="1" parent="1" source="3rRtZios1IY7zG07xDWW-13" target="3rRtZios1IY7zG07xDWW-15">
          <mxGeometry relative="1" as="geometry" />
        </mxCell>
        <mxCell id="3rRtZios1IY7zG07xDWW-26" value="否" style="edgeLabel;html=1;align=center;verticalAlign=middle;resizable=0;points=[];" vertex="1" connectable="0" parent="3rRtZios1IY7zG07xDWW-25">
          <mxGeometry x="-0.1" y="-2" relative="1" as="geometry">
            <mxPoint as="offset" />
          </mxGeometry>
        </mxCell>
        <mxCell id="3rRtZios1IY7zG07xDWW-45" style="edgeStyle=orthogonalEdgeStyle;rounded=0;orthogonalLoop=1;jettySize=auto;html=1;exitX=0;exitY=0.5;exitDx=0;exitDy=0;entryX=0;entryY=0.5;entryDx=0;entryDy=0;" edge="1" parent="1" source="3rRtZios1IY7zG07xDWW-13" target="3rRtZios1IY7zG07xDWW-21">
          <mxGeometry relative="1" as="geometry">
            <Array as="points">
              <mxPoint x="160" y="200" />
              <mxPoint x="160" y="760" />
            </Array>
          </mxGeometry>
        </mxCell>
        <mxCell id="3rRtZios1IY7zG07xDWW-46" value="是" style="edgeLabel;html=1;align=center;verticalAlign=middle;resizable=0;points=[];" vertex="1" connectable="0" parent="3rRtZios1IY7zG07xDWW-45">
          <mxGeometry x="-0.7702" y="-1" relative="1" as="geometry">
            <mxPoint as="offset" />
          </mxGeometry>
        </mxCell>
        <mxCell id="3rRtZios1IY7zG07xDWW-13" value="&lt;span style=&quot;color: rgb(0, 0, 0); font-family: Helvetica; font-size: 12px; font-style: normal; font-variant-ligatures: normal; font-variant-caps: normal; font-weight: 400; letter-spacing: normal; orphans: 2; text-align: center; text-indent: 0px; text-transform: none; widows: 2; word-spacing: 0px; -webkit-text-stroke-width: 0px; white-space: normal; background-color: rgb(251, 251, 251); text-decoration-thickness: initial; text-decoration-style: initial; text-decoration-color: initial; display: inline !important; float: none;&quot;&gt;是否是超级管理员&lt;/span&gt;" style="rhombus;whiteSpace=wrap;html=1;" vertex="1" parent="1">
          <mxGeometry x="330" y="160" width="130" height="80" as="geometry" />
        </mxCell>
        <mxCell id="3rRtZios1IY7zG07xDWW-27" style="edgeStyle=orthogonalEdgeStyle;rounded=0;orthogonalLoop=1;jettySize=auto;html=1;exitX=0.5;exitY=1;exitDx=0;exitDy=0;entryX=0.5;entryY=0;entryDx=0;entryDy=0;" edge="1" parent="1" source="3rRtZios1IY7zG07xDWW-15" target="3rRtZios1IY7zG07xDWW-16">
          <mxGeometry relative="1" as="geometry" />
        </mxCell>
        <mxCell id="3rRtZios1IY7zG07xDWW-51" value="是" style="edgeLabel;html=1;align=center;verticalAlign=middle;resizable=0;points=[];" vertex="1" connectable="0" parent="3rRtZios1IY7zG07xDWW-27">
          <mxGeometry x="-0.28" y="-2" relative="1" as="geometry">
            <mxPoint as="offset" />
          </mxGeometry>
        </mxCell>
        <mxCell id="3rRtZios1IY7zG07xDWW-52" style="edgeStyle=orthogonalEdgeStyle;rounded=0;orthogonalLoop=1;jettySize=auto;html=1;exitX=0;exitY=0.5;exitDx=0;exitDy=0;entryX=0;entryY=0.5;entryDx=0;entryDy=0;dashed=1;" edge="1" parent="1" source="3rRtZios1IY7zG07xDWW-15" target="3rRtZios1IY7zG07xDWW-17">
          <mxGeometry relative="1" as="geometry">
            <Array as="points">
              <mxPoint x="230" y="320" />
              <mxPoint x="230" y="600" />
            </Array>
          </mxGeometry>
        </mxCell>
        <mxCell id="3rRtZios1IY7zG07xDWW-53" value="否" style="edgeLabel;html=1;align=center;verticalAlign=middle;resizable=0;points=[];" vertex="1" connectable="0" parent="3rRtZios1IY7zG07xDWW-52">
          <mxGeometry x="-0.7542" y="-6" relative="1" as="geometry">
            <mxPoint as="offset" />
          </mxGeometry>
        </mxCell>
        <mxCell id="3rRtZios1IY7zG07xDWW-15" value="是否是超管只读角色" style="rhombus;whiteSpace=wrap;html=1;" vertex="1" parent="1">
          <mxGeometry x="330" y="280" width="130" height="80" as="geometry" />
        </mxCell>
        <mxCell id="3rRtZios1IY7zG07xDWW-30" style="edgeStyle=orthogonalEdgeStyle;rounded=0;orthogonalLoop=1;jettySize=auto;html=1;exitX=0.5;exitY=1;exitDx=0;exitDy=0;entryX=0.5;entryY=0;entryDx=0;entryDy=0;" edge="1" parent="1" source="3rRtZios1IY7zG07xDWW-16" target="3rRtZios1IY7zG07xDWW-17">
          <mxGeometry relative="1" as="geometry" />
        </mxCell>
        <mxCell id="3rRtZios1IY7zG07xDWW-31" value="是" style="edgeLabel;html=1;align=center;verticalAlign=middle;resizable=0;points=[];" vertex="1" connectable="0" parent="3rRtZios1IY7zG07xDWW-30">
          <mxGeometry x="-0.0571" y="1" relative="1" as="geometry">
            <mxPoint as="offset" />
          </mxGeometry>
        </mxCell>
        <mxCell id="3rRtZios1IY7zG07xDWW-16" value="是否拥有&lt;div&gt;该项目授权&lt;/div&gt;" style="rhombus;whiteSpace=wrap;html=1;" vertex="1" parent="1">
          <mxGeometry x="330" y="410" width="130" height="80" as="geometry" />
        </mxCell>
        <mxCell id="3rRtZios1IY7zG07xDWW-34" style="edgeStyle=orthogonalEdgeStyle;rounded=0;orthogonalLoop=1;jettySize=auto;html=1;exitX=0.5;exitY=1;exitDx=0;exitDy=0;entryX=0.5;entryY=0;entryDx=0;entryDy=0;" edge="1" parent="1" source="3rRtZios1IY7zG07xDWW-17" target="3rRtZios1IY7zG07xDWW-21">
          <mxGeometry relative="1" as="geometry" />
        </mxCell>
        <mxCell id="3rRtZios1IY7zG07xDWW-35" value="是" style="edgeLabel;html=1;align=center;verticalAlign=middle;resizable=0;points=[];" vertex="1" connectable="0" parent="3rRtZios1IY7zG07xDWW-34">
          <mxGeometry y="-1" relative="1" as="geometry">
            <mxPoint as="offset" />
          </mxGeometry>
        </mxCell>
        <mxCell id="3rRtZios1IY7zG07xDWW-17" value="是否是数仓角色" style="rhombus;whiteSpace=wrap;html=1;" vertex="1" parent="1">
          <mxGeometry x="330" y="560" width="130" height="80" as="geometry" />
        </mxCell>
        <mxCell id="3rRtZios1IY7zG07xDWW-38" style="edgeStyle=orthogonalEdgeStyle;rounded=0;orthogonalLoop=1;jettySize=auto;html=1;exitX=0.5;exitY=1;exitDx=0;exitDy=0;entryX=1;entryY=0.5;entryDx=0;entryDy=0;" edge="1" parent="1" source="3rRtZios1IY7zG07xDWW-18" target="3rRtZios1IY7zG07xDWW-21">
          <mxGeometry relative="1" as="geometry" />
        </mxCell>
        <mxCell id="3rRtZios1IY7zG07xDWW-39" value="是" style="edgeLabel;html=1;align=center;verticalAlign=middle;resizable=0;points=[];" vertex="1" connectable="0" parent="3rRtZios1IY7zG07xDWW-38">
          <mxGeometry x="-0.6133" y="3" relative="1" as="geometry">
            <mxPoint as="offset" />
          </mxGeometry>
        </mxCell>
        <mxCell id="3rRtZios1IY7zG07xDWW-43" style="edgeStyle=orthogonalEdgeStyle;rounded=0;orthogonalLoop=1;jettySize=auto;html=1;exitX=1;exitY=0.5;exitDx=0;exitDy=0;entryX=0.5;entryY=0;entryDx=0;entryDy=0;" edge="1" parent="1" source="3rRtZios1IY7zG07xDWW-18" target="3rRtZios1IY7zG07xDWW-40">
          <mxGeometry relative="1" as="geometry" />
        </mxCell>
        <mxCell id="3rRtZios1IY7zG07xDWW-44" value="否" style="edgeLabel;html=1;align=center;verticalAlign=middle;resizable=0;points=[];" vertex="1" connectable="0" parent="3rRtZios1IY7zG07xDWW-43">
          <mxGeometry x="-0.7172" y="-2" relative="1" as="geometry">
            <mxPoint as="offset" />
          </mxGeometry>
        </mxCell>
        <mxCell id="3rRtZios1IY7zG07xDWW-18" value="是否是uat逻辑环境" style="rhombus;whiteSpace=wrap;html=1;" vertex="1" parent="1">
          <mxGeometry x="570" y="560" width="130" height="80" as="geometry" />
        </mxCell>
        <mxCell id="3rRtZios1IY7zG07xDWW-21" value="拥有编辑权限" style="rounded=0;whiteSpace=wrap;html=1;" vertex="1" parent="1">
          <mxGeometry x="335" y="730" width="120" height="60" as="geometry" />
        </mxCell>
        <mxCell id="3rRtZios1IY7zG07xDWW-36" style="edgeStyle=orthogonalEdgeStyle;rounded=0;orthogonalLoop=1;jettySize=auto;html=1;exitX=1;exitY=0.5;exitDx=0;exitDy=0;entryX=0.069;entryY=0.513;entryDx=0;entryDy=0;entryPerimeter=0;" edge="1" parent="1" source="3rRtZios1IY7zG07xDWW-17" target="3rRtZios1IY7zG07xDWW-18">
          <mxGeometry relative="1" as="geometry" />
        </mxCell>
        <mxCell id="3rRtZios1IY7zG07xDWW-37" value="否" style="edgeLabel;html=1;align=center;verticalAlign=middle;resizable=0;points=[];" vertex="1" connectable="0" parent="3rRtZios1IY7zG07xDWW-36">
          <mxGeometry x="-0.0197" y="2" relative="1" as="geometry">
            <mxPoint as="offset" />
          </mxGeometry>
        </mxCell>
        <mxCell id="3rRtZios1IY7zG07xDWW-40" value="没有编辑权限" style="rounded=0;whiteSpace=wrap;html=1;" vertex="1" parent="1">
          <mxGeometry x="700" y="830" width="120" height="60" as="geometry" />
        </mxCell>
        <mxCell id="3rRtZios1IY7zG07xDWW-49" style="edgeStyle=orthogonalEdgeStyle;rounded=0;orthogonalLoop=1;jettySize=auto;html=1;exitX=1;exitY=0.5;exitDx=0;exitDy=0;entryX=0.683;entryY=-0.033;entryDx=0;entryDy=0;entryPerimeter=0;" edge="1" parent="1" source="3rRtZios1IY7zG07xDWW-16" target="3rRtZios1IY7zG07xDWW-40">
          <mxGeometry relative="1" as="geometry" />
        </mxCell>
        <mxCell id="3rRtZios1IY7zG07xDWW-50" value="否" style="edgeLabel;html=1;align=center;verticalAlign=middle;resizable=0;points=[];" vertex="1" connectable="0" parent="3rRtZios1IY7zG07xDWW-49">
          <mxGeometry x="-0.5514" y="1" relative="1" as="geometry">
            <mxPoint as="offset" />
          </mxGeometry>
        </mxCell>
      </root>
    </mxGraphModel>
  </diagram>
</mxfile>
